<svg height="638" width="720" xmlns="http://www.w3.org/2000/svg">
<rect height="638" fill="#555" width="720"></rect>
<text fill="#7f7" font-family="Courier New" font-size="12" xml:space="preserve">
<tspan x="10" y="26">5 megabytes installed</tspan>
<tspan x="10" y="42"></tspan>
<tspan x="10" y="58">node_modules</tspan>
<tspan x="10" y="74">├─┬ discord.js@11.0.0 </tspan>
<tspan x="10" y="90">│ ├── @types/node@6.0.70 </tspan>
<tspan x="10" y="106">│ ├── pako@1.0.5 </tspan>
<tspan x="10" y="122">│ ├─┬ superagent@3.5.2 </tspan>
<tspan x="10" y="138">│ │ ├── component-emitter@1.2.1 </tspan>
<tspan x="10" y="154">│ │ ├── cookiejar@2.1.1 </tspan>
<tspan x="10" y="170">│ │ ├─┬ debug@2.6.3 </tspan>
<tspan x="10" y="186">│ │ │ └── ms@0.7.2 </tspan>
<tspan x="10" y="202">│ │ ├── extend@3.0.0 </tspan>
<tspan x="10" y="218">│ │ ├─┬ form-data@2.1.4 </tspan>
<tspan x="10" y="234">│ │ │ ├── asynckit@0.4.0 </tspan>
<tspan x="10" y="250">│ │ │ ├─┬ combined-stream@1.0.5 </tspan>
<tspan x="10" y="266">│ │ │ │ └── delayed-stream@1.0.0 </tspan>
<tspan x="10" y="282">│ │ │ └─┬ mime-types@2.1.15 </tspan>
<tspan x="10" y="298">│ │ │   └── mime-db@1.27.0 </tspan>
<tspan x="10" y="314">│ │ ├── formidable@1.1.1 </tspan>
<tspan x="10" y="330">│ │ ├── methods@1.1.2 </tspan>
<tspan x="10" y="346">│ │ ├── mime@1.3.4 </tspan>
<tspan x="10" y="362">│ │ ├── qs@6.4.0 </tspan>
<tspan x="10" y="378">│ │ └─┬ readable-stream@2.2.9 </tspan>
<tspan x="10" y="394">│ │   ├── buffer-shims@1.0.0 </tspan>
<tspan x="10" y="410">│ │   ├── core-util-is@1.0.2 </tspan>
<tspan x="10" y="426">│ │   ├── inherits@2.0.3 </tspan>
<tspan x="10" y="442">│ │   ├── isarray@1.0.0 </tspan>
<tspan x="10" y="458">│ │   ├── process-nextick-args@1.0.7 </tspan>
<tspan x="10" y="474">│ │   ├── string_decoder@1.0.0 </tspan>
<tspan x="10" y="490">│ │   └── util-deprecate@1.0.2 </tspan>
<tspan x="10" y="506">│ ├── tweetnacl@0.14.5 </tspan>
<tspan x="10" y="522">│ └─┬ ws@1.1.4 </tspan>
<tspan x="10" y="538">│   ├── options@0.0.6 </tspan>
<tspan x="10" y="554">│   └── ultron@1.0.2 </tspan>
<tspan x="10" y="570">├── UNMET PEER DEPENDENCY erlpack@hammerandchisel/erlpack#master</tspan>
<tspan x="10" y="586">├── UNMET PEER DEPENDENCY node-opus@^0.2.0</tspan>
<tspan x="10" y="602">├── UNMET PEER DEPENDENCY opusscript@^0.0.1</tspan>
<tspan x="10" y="618">└── UNMET PEER DEPENDENCY uws@^0.12.0</tspan>
</text>
</svg>
